<?xml version="1.0" encoding="UTF-8" standalone="no"?>
<svg
   viewBox="0 0 448 512"
   version="1.1"
   id="svg4"
   sodipodi:docname="fb5c96cb0591d060741fa57c834e8bd4.svg"
   width="448"
   height="512"
   xmlns:inkscape="http://www.inkscape.org/namespaces/inkscape"
   xmlns:sodipodi="http://sodipodi.sourceforge.net/DTD/sodipodi-0.dtd"
   xmlns="http://www.w3.org/2000/svg"
   xmlns:svg="http://www.w3.org/2000/svg">
  <defs
     id="defs8" />
  <sodipodi:namedview
     id="namedview6"
     pagecolor="#ffffff"
     bordercolor="#666666"
     borderopacity="1.0"
     inkscape:pageshadow="2"
     inkscape:pageopacity="0.0"
     inkscape:pagecheckerboard="0" />
  <!--!Font Awesome Free 6.5.2 by @fontawesome - https://fontawesome.com License - https://fontawesome.com/license/free Copyright 2024 Fonticons, Inc.-->
  <path
     d="M 384,336 H 192 c -8.8,0 -16,-7.2 -16,-16 V 64 c 0,-8.8 7.2,-16 16,-16 H 332.1 L 400,115.9 V 320 c 0,8.8 -7.2,16 -16,16 z m -192,48 h 192 c 35.3,0 64,-28.7 64,-64 V 115.9 C 448,103.2 442.9,91 433.9,82 L 366.1,14.1 C 357.1,5.1 344.9,0 332.2,0 H 192 c -35.3,0 -64,28.7 -64,64 v 256 c 0,35.3 28.7,64 64,64 z M 64,128 C 28.7,128 0,156.7 0,192 v 256 c 0,35.3 28.7,64 64,64 h 192 c 35.3,0 64,-28.7 64,-64 v -32 h -48 v 32 c 0,8.8 -7.2,16 -16,16 H 64 c -8.8,0 -16,-7.2 -16,-16 V 192 c 0,-8.8 7.2,-16 16,-16 h 32 v -48 z"
     id="path2" />
</svg>
